<mxfile host="app.diagrams.net" agent="Mozilla/5.0 (Windows NT 10.0; Win64; x64) AppleWebKit/537.36 (KHTML, like Gecko) Chrome/134.0.0.0 Safari/537.36" version="26.0.14">
  <diagram name="Page-1" id="GErbwyY22_0ohBwpbLKr">
    <mxGraphModel dx="1050" dy="569" grid="1" gridSize="10" guides="1" tooltips="1" connect="1" arrows="1" fold="1" page="1" pageScale="1" pageWidth="827" pageHeight="1169" math="0" shadow="0">
      <root>
        <mxCell id="0" />
        <mxCell id="1" parent="0" />
        <mxCell id="IijRfdu2nY_PAscciB4N-1" value="&lt;span style=&quot;font-family: Inter, system-ui, -apple-system, &amp;quot;Segoe UI&amp;quot;, Roboto, Ubuntu, Cantarell, &amp;quot;Noto Sans&amp;quot;, sans-serif, &amp;quot;Segoe UI&amp;quot;, Roboto, Ubuntu, Cantarell, &amp;quot;Noto Sans&amp;quot;, sans-serif; font-size: 14px; text-align: start;&quot;&gt;&lt;font style=&quot;color: rgb(0, 0, 0);&quot;&gt;Fintech LLM Chatbot System Architecture&lt;/font&gt;&lt;/span&gt;" style="text;html=1;align=center;verticalAlign=middle;whiteSpace=wrap;rounded=0;" vertex="1" parent="1">
          <mxGeometry x="150" y="30" width="420" height="30" as="geometry" />
        </mxCell>
        <mxCell id="IijRfdu2nY_PAscciB4N-7" value="Clint Layer" style="text;html=1;align=center;verticalAlign=middle;whiteSpace=wrap;rounded=0;" vertex="1" parent="1">
          <mxGeometry x="75" y="90" width="60" height="30" as="geometry" />
        </mxCell>
        <mxCell id="IijRfdu2nY_PAscciB4N-8" value="" style="rounded=1;whiteSpace=wrap;html=1;" vertex="1" parent="1">
          <mxGeometry x="20" y="140" width="170" height="220" as="geometry" />
        </mxCell>
        <mxCell id="IijRfdu2nY_PAscciB4N-9" value="&lt;span style=&quot;font-family: Inter, system-ui, -apple-system, &amp;quot;Segoe UI&amp;quot;, Roboto, Ubuntu, Cantarell, &amp;quot;Noto Sans&amp;quot;, sans-serif, &amp;quot;Segoe UI&amp;quot;, Roboto, Ubuntu, Cantarell, &amp;quot;Noto Sans&amp;quot;, sans-serif; font-size: 14px; text-align: start;&quot;&gt;&lt;font style=&quot;color: rgb(0, 0, 0);&quot;&gt;Web Browser (React App)&lt;/font&gt;&lt;/span&gt;" style="text;html=1;align=center;verticalAlign=middle;whiteSpace=wrap;rounded=0;" vertex="1" parent="1">
          <mxGeometry x="45" y="150" width="120" height="30" as="geometry" />
        </mxCell>
        <mxCell id="IijRfdu2nY_PAscciB4N-11" value="Running on http://localhost:3000" style="rounded=1;whiteSpace=wrap;html=1;" vertex="1" parent="1">
          <mxGeometry x="45" y="190" width="120" height="40" as="geometry" />
        </mxCell>
        <mxCell id="IijRfdu2nY_PAscciB4N-13" value="Login" style="rounded=1;whiteSpace=wrap;html=1;" vertex="1" parent="1">
          <mxGeometry x="45" y="240" width="120" height="30" as="geometry" />
        </mxCell>
        <mxCell id="IijRfdu2nY_PAscciB4N-14" value="Dashboard" style="rounded=1;whiteSpace=wrap;html=1;" vertex="1" parent="1">
          <mxGeometry x="45" y="280" width="120" height="30" as="geometry" />
        </mxCell>
        <mxCell id="IijRfdu2nY_PAscciB4N-15" value="Query Input" style="rounded=1;whiteSpace=wrap;html=1;" vertex="1" parent="1">
          <mxGeometry x="45" y="320" width="120" height="30" as="geometry" />
        </mxCell>
        <mxCell id="IijRfdu2nY_PAscciB4N-16" value="API Gateway" style="text;html=1;align=center;verticalAlign=middle;whiteSpace=wrap;rounded=0;" vertex="1" parent="1">
          <mxGeometry x="315" y="90" width="90" height="30" as="geometry" />
        </mxCell>
        <mxCell id="IijRfdu2nY_PAscciB4N-17" value="User Management Service (port 8000)" style="rounded=1;whiteSpace=wrap;html=1;" vertex="1" parent="1">
          <mxGeometry x="300" y="140" width="120" height="60" as="geometry" />
        </mxCell>
        <mxCell id="IijRfdu2nY_PAscciB4N-18" value="Query Processing Service (port 8001)" style="rounded=1;whiteSpace=wrap;html=1;" vertex="1" parent="1">
          <mxGeometry x="300" y="430" width="120" height="60" as="geometry" />
        </mxCell>
        <mxCell id="IijRfdu2nY_PAscciB4N-19" value="Backend Microservices" style="text;html=1;align=center;verticalAlign=middle;whiteSpace=wrap;rounded=0;" vertex="1" parent="1">
          <mxGeometry x="560" y="90" width="130" height="30" as="geometry" />
        </mxCell>
        <mxCell id="IijRfdu2nY_PAscciB4N-22" value="" style="rounded=1;whiteSpace=wrap;html=1;" vertex="1" parent="1">
          <mxGeometry x="515" y="140" width="220" height="530" as="geometry" />
        </mxCell>
        <mxCell id="IijRfdu2nY_PAscciB4N-23" value="User Management Service" style="text;html=1;align=center;verticalAlign=middle;whiteSpace=wrap;rounded=0;" vertex="1" parent="1">
          <mxGeometry x="525" y="155" width="200" height="30" as="geometry" />
        </mxCell>
        <mxCell id="IijRfdu2nY_PAscciB4N-24" value="" style="rounded=1;whiteSpace=wrap;html=1;" vertex="1" parent="1">
          <mxGeometry x="530" y="190" width="190" height="210" as="geometry" />
        </mxCell>
        <mxCell id="IijRfdu2nY_PAscciB4N-27" value="FastAPI" style="text;html=1;align=center;verticalAlign=middle;whiteSpace=wrap;rounded=0;" vertex="1" parent="1">
          <mxGeometry x="595" y="195" width="60" height="30" as="geometry" />
        </mxCell>
        <mxCell id="IijRfdu2nY_PAscciB4N-28" value="Runs on: http://localhost:8000" style="rounded=1;whiteSpace=wrap;html=1;" vertex="1" parent="1">
          <mxGeometry x="540" y="230" width="170" height="30" as="geometry" />
        </mxCell>
        <mxCell id="IijRfdu2nY_PAscciB4N-29" value="Authentication Controller" style="rounded=1;whiteSpace=wrap;html=1;" vertex="1" parent="1">
          <mxGeometry x="540" y="270" width="170" height="30" as="geometry" />
        </mxCell>
        <mxCell id="IijRfdu2nY_PAscciB4N-30" value="Handling login requests" style="rounded=1;whiteSpace=wrap;html=1;" vertex="1" parent="1">
          <mxGeometry x="540" y="310" width="170" height="30" as="geometry" />
        </mxCell>
        <mxCell id="IijRfdu2nY_PAscciB4N-31" value="JWT Token Generator" style="rounded=1;whiteSpace=wrap;html=1;" vertex="1" parent="1">
          <mxGeometry x="540" y="350" width="170" height="30" as="geometry" />
        </mxCell>
        <mxCell id="IijRfdu2nY_PAscciB4N-34" value="" style="rounded=1;whiteSpace=wrap;html=1;" vertex="1" parent="1">
          <mxGeometry x="530" y="420" width="190" height="220" as="geometry" />
        </mxCell>
        <mxCell id="IijRfdu2nY_PAscciB4N-35" value="Query Processing Service" style="text;html=1;align=center;verticalAlign=middle;whiteSpace=wrap;rounded=0;" vertex="1" parent="1">
          <mxGeometry x="540" y="440" width="170" height="30" as="geometry" />
        </mxCell>
        <mxCell id="IijRfdu2nY_PAscciB4N-36" value="Runs on: http://localhost:8001" style="rounded=1;whiteSpace=wrap;html=1;" vertex="1" parent="1">
          <mxGeometry x="540" y="470" width="170" height="30" as="geometry" />
        </mxCell>
        <mxCell id="IijRfdu2nY_PAscciB4N-37" value="Token Verification Module" style="rounded=1;whiteSpace=wrap;html=1;" vertex="1" parent="1">
          <mxGeometry x="540" y="510" width="170" height="30" as="geometry" />
        </mxCell>
        <mxCell id="IijRfdu2nY_PAscciB4N-38" value="Business Logic Controller" style="rounded=1;whiteSpace=wrap;html=1;" vertex="1" parent="1">
          <mxGeometry x="540" y="550" width="170" height="30" as="geometry" />
        </mxCell>
        <mxCell id="IijRfdu2nY_PAscciB4N-39" value="Llama Integration Module&amp;nbsp;" style="rounded=1;whiteSpace=wrap;html=1;" vertex="1" parent="1">
          <mxGeometry x="540" y="590" width="170" height="30" as="geometry" />
        </mxCell>
        <mxCell id="IijRfdu2nY_PAscciB4N-42" value="" style="rounded=1;whiteSpace=wrap;html=1;" vertex="1" parent="1">
          <mxGeometry x="800" y="307.5" width="200" height="172.5" as="geometry" />
        </mxCell>
        <mxCell id="IijRfdu2nY_PAscciB4N-43" value="Llama Integration" style="text;html=1;align=center;verticalAlign=middle;whiteSpace=wrap;rounded=0;" vertex="1" parent="1">
          <mxGeometry x="812" y="322.5" width="180" height="30" as="geometry" />
        </mxCell>
        <mxCell id="IijRfdu2nY_PAscciB4N-46" value="Ollama" style="rounded=1;whiteSpace=wrap;html=1;" vertex="1" parent="1">
          <mxGeometry x="810" y="352.5" width="180" height="40" as="geometry" />
        </mxCell>
        <mxCell id="IijRfdu2nY_PAscciB4N-47" value="Fine Tuned LLM&lt;div&gt;(Llama 3.2)&lt;/div&gt;" style="rounded=1;whiteSpace=wrap;html=1;" vertex="1" parent="1">
          <mxGeometry x="810" y="400" width="180" height="60" as="geometry" />
        </mxCell>
        <mxCell id="IijRfdu2nY_PAscciB4N-48" value="Authentication" style="text;html=1;align=center;verticalAlign=middle;whiteSpace=wrap;rounded=0;" vertex="1" parent="1">
          <mxGeometry x="330" y="200" width="60" height="30" as="geometry" />
        </mxCell>
        <mxCell id="IijRfdu2nY_PAscciB4N-49" value="Text Generation" style="text;html=1;align=center;verticalAlign=middle;whiteSpace=wrap;rounded=0;" vertex="1" parent="1">
          <mxGeometry x="290" y="490" width="140" height="30" as="geometry" />
        </mxCell>
        <mxCell id="IijRfdu2nY_PAscciB4N-50" value="Login request&amp;nbsp;" style="text;html=1;align=center;verticalAlign=middle;whiteSpace=wrap;rounded=0;rotation=-30;" vertex="1" parent="1">
          <mxGeometry x="191.34" y="174" width="98.66" height="30" as="geometry" />
        </mxCell>
        <mxCell id="IijRfdu2nY_PAscciB4N-51" value="Query request" style="text;html=1;align=center;verticalAlign=middle;whiteSpace=wrap;rounded=0;rotation=60;" vertex="1" parent="1">
          <mxGeometry x="209" y="337" width="80" height="30" as="geometry" />
        </mxCell>
        <mxCell id="IijRfdu2nY_PAscciB4N-52" value="" style="endArrow=classic;startArrow=classic;html=1;rounded=0;entryX=0;entryY=0.5;entryDx=0;entryDy=0;" edge="1" parent="1" target="IijRfdu2nY_PAscciB4N-17">
          <mxGeometry width="50" height="50" relative="1" as="geometry">
            <mxPoint x="190" y="230" as="sourcePoint" />
            <mxPoint x="240" y="180" as="targetPoint" />
          </mxGeometry>
        </mxCell>
        <mxCell id="IijRfdu2nY_PAscciB4N-53" value="" style="endArrow=classic;startArrow=classic;html=1;rounded=0;entryX=0.004;entryY=0.458;entryDx=0;entryDy=0;entryPerimeter=0;" edge="1" parent="1" target="IijRfdu2nY_PAscciB4N-24">
          <mxGeometry width="50" height="50" relative="1" as="geometry">
            <mxPoint x="420" y="170" as="sourcePoint" />
            <mxPoint x="470" y="120" as="targetPoint" />
          </mxGeometry>
        </mxCell>
        <mxCell id="IijRfdu2nY_PAscciB4N-54" value="JWT token" style="text;html=1;align=center;verticalAlign=middle;whiteSpace=wrap;rounded=0;rotation=45;" vertex="1" parent="1">
          <mxGeometry x="430" y="178" width="60" height="30" as="geometry" />
        </mxCell>
        <mxCell id="IijRfdu2nY_PAscciB4N-55" value="" style="endArrow=classic;startArrow=classic;html=1;rounded=0;entryX=0;entryY=0.5;entryDx=0;entryDy=0;exitX=0.986;exitY=0.657;exitDx=0;exitDy=0;exitPerimeter=0;" edge="1" parent="1" source="IijRfdu2nY_PAscciB4N-8" target="IijRfdu2nY_PAscciB4N-18">
          <mxGeometry width="50" height="50" relative="1" as="geometry">
            <mxPoint x="190" y="310" as="sourcePoint" />
            <mxPoint x="240" y="260" as="targetPoint" />
          </mxGeometry>
        </mxCell>
        <mxCell id="IijRfdu2nY_PAscciB4N-56" value="" style="endArrow=classic;startArrow=classic;html=1;rounded=0;entryX=0;entryY=0.5;entryDx=0;entryDy=0;" edge="1" parent="1" target="IijRfdu2nY_PAscciB4N-34">
          <mxGeometry width="50" height="50" relative="1" as="geometry">
            <mxPoint x="420" y="460" as="sourcePoint" />
            <mxPoint x="470" y="410" as="targetPoint" />
          </mxGeometry>
        </mxCell>
        <mxCell id="IijRfdu2nY_PAscciB4N-57" value="" style="endArrow=classic;startArrow=classic;html=1;rounded=0;entryX=0;entryY=0.5;entryDx=0;entryDy=0;" edge="1" parent="1" target="IijRfdu2nY_PAscciB4N-42">
          <mxGeometry width="50" height="50" relative="1" as="geometry">
            <mxPoint x="710" y="610" as="sourcePoint" />
            <mxPoint x="760" y="560" as="targetPoint" />
          </mxGeometry>
        </mxCell>
        <mxCell id="IijRfdu2nY_PAscciB4N-58" value="Answer" style="text;html=1;align=center;verticalAlign=middle;whiteSpace=wrap;rounded=0;" vertex="1" parent="1">
          <mxGeometry x="740" y="550" width="60" height="30" as="geometry" />
        </mxCell>
      </root>
    </mxGraphModel>
  </diagram>
</mxfile>
